<?xml version="1.0" standalone="no"?>
<!DOCTYPE svg PUBLIC "-//W3C//DTD SVG 20010904//EN"
 "http://www.w3.org/TR/2001/REC-SVG-20010904/DTD/svg10.dtd">
<svg version="1.0" xmlns="http://www.w3.org/2000/svg"
 width="524.000000pt" height="640.000000pt" viewBox="0 0 524.000000 640.000000"
 preserveAspectRatio="xMidYMid meet">
<metadata>
Created by potrace 1.16, written by Peter Selinger 2001-2019
</metadata>
<g transform="translate(0.000000,640.000000) scale(0.100000,-0.100000)"
fill="#000000" stroke="none">
<path d="M1778 6296 c-99 -36 -175 -103 -225 -198 -25 -48 -28 -63 -28 -158 0
-93 3 -112 27 -162 49 -105 140 -181 251 -208 l47 -12 0 -614 0 -613 -857
-1628 c-568 -1077 -868 -1656 -886 -1712 -35 -101 -45 -231 -28 -323 40 -203
209 -367 426 -413 102 -21 2195 -22 2195 -1 0 7 -20 139 -45 292 -25 153 -43
279 -41 281 1 2 37 -12 79 -31 171 -78 357 -129 585 -160 159 -22 194 -21 220
7 14 15 22 36 22 58 0 47 -26 202 -56 338 l-26 113 104 107 c167 170 255 296
379 544 116 232 111 256 -61 287 -245 43 -501 49 -694 15 -45 -8 -84 -15 -87
-15 -4 0 -10 26 -14 58 -10 79 -59 264 -90 341 -71 173 -205 393 -330 544 -51
61 -60 68 -88 65 -27 -2 -43 -17 -100 -88 -128 -160 -237 -341 -307 -511 -36
-85 -85 -267 -95 -351 -4 -32 -10 -58 -14 -58 -3 0 -42 7 -87 15 -193 34 -449
28 -694 -15 -172 -31 -177 -55 -61 -287 124 -247 212 -374 378 -543 l103 -106
-35 -168 c-19 -93 -37 -202 -41 -243 -6 -68 -5 -76 16 -98 28 -30 61 -32 222
-9 228 31 414 82 585 160 42 19 78 33 79 31 2 -2 -8 -76 -23 -165 l-26 -162
-941 2 c-892 3 -944 4 -991 22 -78 29 -128 69 -160 128 -25 44 -29 64 -29 123
0 41 8 93 19 125 10 30 409 798 886 1707 l869 1652 0 781 0 780 -116 0 c-130
0 -169 12 -197 59 -21 36 -22 73 -2 111 32 62 7 60 765 60 758 0 733 2 765
-60 19 -37 19 -64 -1 -105 -24 -52 -64 -65 -198 -65 l-116 0 0 -780 0 -780
869 -1653 c477 -908 877 -1677 887 -1707 11 -34 18 -82 18 -125 0 -122 -62
-204 -189 -251 -47 -18 -98 -19 -937 -22 -692 -2 -888 -5 -888 -15 0 -6 9 -64
20 -127 11 -63 20 -116 20 -117 0 -2 390 -3 868 -3 724 0 879 3 937 15 217 46
386 210 426 413 16 83 7 210 -21 306 -17 56 -253 514 -882 1708 l-858 1631 0
623 0 623 43 12 c107 28 197 105 245 207 24 50 27 69 27 162 0 100 -1 108 -34
168 -39 72 -97 129 -173 169 l-53 28 -760 2 c-608 2 -767 0 -797 -11z m792
-3893 c1 -247 9 -525 17 -533 8 -9 167 79 236 131 37 28 85 76 107 106 45 63
50 63 19 0 -43 -84 -218 -240 -337 -301 l-33 -17 7 -397 c4 -218 8 -399 10
-401 6 -7 174 85 282 156 l114 74 35 76 c49 106 83 247 84 352 l1 86 11 -55
c12 -68 -3 -217 -33 -314 -12 -37 -19 -70 -17 -73 8 -7 148 119 208 188 81 93
134 166 184 255 59 103 57 86 -2 -29 -127 -246 -401 -519 -710 -708 -93 -57
-93 -57 -60 -63 204 -38 454 -20 619 45 27 10 47 15 44 10 -8 -12 -150 -68
-220 -86 -114 -29 -226 -38 -371 -30 -180 10 -239 10 -410 0 -201 -11 -341 10
-508 76 -104 42 -107 53 -4 18 45 -15 114 -33 152 -39 94 -16 303 -16 393 0
l73 12 -93 57 c-310 189 -584 461 -711 708 -59 115 -61 132 -2 29 50 -89 103
-162 184 -255 60 -69 200 -195 208 -188 2 3 -5 36 -17 73 -30 97 -45 246 -33
314 l11 55 1 -86 c1 -105 35 -246 84 -352 l35 -76 114 -74 c109 -72 275 -163
283 -156 1 2 7 238 11 524 4 286 8 540 8 564 1 45 1 45 -74 95 -94 64 -180
149 -219 218 -39 67 -40 83 -2 32 45 -64 139 -141 223 -184 l78 -41 0 215 c0
137 4 216 10 216 6 0 10 -83 10 -227z"/>
</g>
</svg>
